<?xml version="1.0" encoding="utf-8"?>
<!-- Generator: Adobe Illustrator 26.0.2, SVG Export Plug-In . SVG Version: 6.00 Build 0)  -->
<svg version="1.1" id="Artwork" xmlns="http://www.w3.org/2000/svg" xmlns:xlink="http://www.w3.org/1999/xlink" x="0px" y="0px"
	 viewBox="0 0 494.38 111.62" style="enable-background:new 0 0 494.38 111.62;" xml:space="preserve">
<style type="text/css">
	.st0{fill:#00B86C;}
</style>
<g>
	<path class="st0" d="M74.18,55.62c0-4.66-2.71-9.07-7.51-13c4.8-3.92,7.51-8.33,7.51-13c0-16.31-32.97-29.53-73.65-29.53v25.99
		v25.99v7.08v25.99v25.99c40.67,0,73.65-13.22,73.65-29.53c0-4.66-2.71-9.07-7.51-13C71.47,64.69,74.18,60.28,74.18,55.62z
		 M7.62,7.31c7.04,0.28,13.88,0.98,20.4,2.08c8.27,1.4,15.66,3.4,21.96,5.92c5.85,2.34,10.53,5.1,13.55,7.95
		c2.37,2.25,3.58,4.39,3.58,6.36c0,1.97-1.2,4.11-3.58,6.36c-0.88,0.84-1.92,1.66-3.08,2.47c-12.07-6.76-31.06-11.4-52.83-12.23
		V7.31z M7.62,51.94V33.31c7.04,0.28,13.88,0.98,20.4,2.08c8.27,1.4,15.66,3.4,21.96,5.92c1.06,0.42,2.06,0.87,3.04,1.31
		c-0.98,0.45-1.98,0.89-3.04,1.31c-6.3,2.53-13.68,4.52-21.96,5.92C21.49,50.96,14.66,51.66,7.62,51.94z M28.02,61.38
		c8.27,1.4,15.66,3.4,21.96,5.92c1.06,0.42,2.06,0.87,3.04,1.31c-0.98,0.45-1.98,0.89-3.04,1.31c-6.3,2.53-13.68,4.52-21.96,5.92
		c-6.52,1.11-13.36,1.8-20.4,2.08V59.3C14.66,59.58,21.49,60.27,28.02,61.38z M63.52,75.25c2.37,2.25,3.58,4.39,3.58,6.36
		c0,1.97-1.2,4.11-3.58,6.36c-3.01,2.86-7.7,5.61-13.55,7.95c-6.3,2.53-13.68,4.52-21.96,5.92c-6.52,1.11-13.36,1.8-20.4,2.08V85.01
		c21.77-0.83,40.76-5.47,52.83-12.23C61.6,73.59,62.64,74.42,63.52,75.25z M63.52,61.98c-0.88,0.84-1.92,1.66-3.08,2.47
		c-6.51-3.65-15.03-6.68-24.92-8.83c9.89-2.15,18.41-5.18,24.92-8.83c1.15,0.81,2.19,1.63,3.08,2.47c2.37,2.25,3.58,4.39,3.58,6.36
		S65.89,59.72,63.52,61.98z"/>
	<g>
		<path d="M134.35,89.5l-3.03-2.94h-2.64l-1.17,5.28h-7.44v-72.4h9.59V39.5l-0.68,5.97l2.54,0.59l3.13-3.03
			c2.45-2.25,5.28-3.23,9.3-3.23c12.43,0,20.06,9.2,20.06,26.52c0,17.32-7.63,26.52-20.25,26.52
			C139.73,92.83,136.9,91.95,134.35,89.5z M140.91,84.02c8.81,0,12.82-5.67,12.82-17.71c0-12.03-4.01-17.71-12.82-17.71
			c-7.14,0-11.25,3.82-11.25,10.96v13.5C129.66,80.2,133.76,84.02,140.91,84.02z"/>
		<path d="M175.93,78.25c0-9.78,6.65-15.17,18-15.17h13.99v-4.6c0-7.44-3.42-10.37-10.27-10.37c-5.87,0-9.98,2.15-10.47,7.83h-9
			c0.2-9.78,7.04-16.14,20.35-16.14c12.72,0,18.98,5.48,18.98,17.22v34.83h-7.53l-1.08-5.28h-2.64l-3.13,2.94
			c-2.45,2.35-6.36,3.33-10.76,3.33C181.81,92.83,175.93,87.45,175.93,78.25z M195.11,84.8c8.02,0,12.82-4.31,12.82-11.45v-3.82
			H195.8c-6.56,0-10.08,2.64-10.08,7.83C185.72,81.77,188.26,84.8,195.11,84.8z"/>
		<path d="M232.08,76.58h9.59c0.39,5.87,4.79,8.22,11.94,8.22c7.53,0,11.84-2.64,11.84-7.44c0-3.42-2.35-5.58-7.04-6.56l-12.03-2.45
			c-8.71-1.76-12.52-6.36-12.52-13.21c0-9.78,7.44-15.36,20.06-15.36c10.47,0,19.76,3.91,20.35,15.07h-9.2
			c-0.59-4.99-4.89-7.14-11.35-7.14c-6.65,0-10.27,2.35-10.27,6.46c0,3.03,1.96,4.89,5.77,5.67l11.74,2.35
			c9.88,2.05,14.29,6.56,14.29,14.38c0,10.47-7.93,16.24-21.82,16.24C241.57,92.83,232.56,88.72,232.08,76.58z"/>
		<path d="M287.65,66.31c0-17.32,8.41-26.52,23.58-26.52c14.97,0,22.99,8.71,21.13,27.98h-34.73c0.39,11.64,4.6,16.83,13.6,16.83
			c6.07,0,10.76-2.35,11.74-7.73h9.2c-1.08,9.69-9.1,15.95-21.23,15.95C295.97,92.83,287.65,83.63,287.65,66.31z M323.07,60.54
			c0-8.22-3.91-12.72-12.03-12.72c-7.73,0-11.94,4.21-13.11,12.72H323.07z"/>
		<path d="M352.91,70.52V49.19h-10.99v-8.41h10.99V25.9h9.59v14.87h17.35v8.41H362.5v21.33c0,9.2,3.13,12.92,12.03,12.92h5.29v8.41
			h-6.37C359.08,91.85,352.91,85.39,352.91,70.52z"/>
		<path d="M390.95,66.31c0-17.32,8.41-26.52,23.58-26.52c14.97,0,22.99,8.71,21.13,27.98h-34.73c0.39,11.64,4.6,16.83,13.6,16.83
			c6.07,0,10.76-2.35,11.74-7.73h9.2c-1.08,9.69-9.1,15.95-21.23,15.95C399.27,92.83,390.95,83.63,390.95,66.31z M426.37,60.54
			c0-8.22-3.91-12.72-12.03-12.72c-7.73,0-11.94,4.21-13.11,12.72H426.37z"/>
		<path d="M452.5,40.77h7.44l1.17,5.28h2.64l3.03-2.94c2.54-2.45,6.26-3.33,10.76-3.33c11.35,0,16.83,5.87,16.83,17.32v34.73h-9.59
			V59.66c0-7.44-3.42-10.86-10.86-10.86c-7.73,0-11.84,3.82-11.84,10.86v32.19h-9.59V40.77z"/>
	</g>
</g>
</svg>
